<?xml version="1.0" encoding="UTF-8"?>
<!-- Generated by Pixelmator Pro 3.6.17 -->
<svg width="128" height="128" viewBox="0 0 128 128" xmlns="http://www.w3.org/2000/svg">
    <g id="heyparro">
        <path id="Path-2-Copy" fill="#ffffff" fill-rule="evenodd" stroke="#000000" stroke-width="5.750922" d="M 38.89072 111.79274 C 49.012348 116.528053 58.327984 117.860832 64.849815 117.801018 C 69.546021 117.757881 78.185623 116.875412 79.215904 116.434875 C 95.056244 113.261536 90.201317 94.933044 67.472519 99.545578 C 59.339859 99.230423 37.576355 112.26432 38.89072 111.79274 Z"/>
        <path id="Path-2" fill="#ffffff" fill-rule="evenodd" stroke="#000000" stroke-width="5.750922" d="M 68.836922 27.375534 C 69.596046 25.916237 74.889488 19.534149 81.721863 19.974091 C 75.077538 6.088493 46.878761 4.597572 38.832359 27.383591 C 35.598618 36.540489 35.2225 45.066811 35.518673 53.272797 C 36.22776 72.927727 40.793415 90.745239 19.187492 110.989632 C 18.310764 111.81115 13.849198 115.1763 16.876772 115.585472 C 30.027691 118.535698 64.325905 111.029877 75.407066 100.584198 C 83.244141 93.197136 99.556328 73.794968 72.960045 48.297966 C 72.960045 48.297966 63.172558 38.263763 68.836922 27.375534 Z"/>
        <path id="Path-2-Copy-1" fill="#ffffff" fill-rule="evenodd" stroke="#000000" stroke-width="5.750922" d="M 38.89072 111.79274 C 49.012348 116.528053 58.327984 117.860832 64.849815 117.801018 C 71.728783 115.767204 73.894287 108.562164 70.765503 104.03849 C 64.104782 94.409134 50.797436 105.904083 38.89072 111.79274 Z"/>
        <path id="path1" fill="#ffffff" fill-rule="evenodd" stroke="#000000" stroke-width="5.750922" d="M 35.630527 55.826492 C 36.339619 75.481705 40.793415 90.745239 19.187492 110.989632 C 18.310764 111.81115 13.849198 115.1763 16.876772 115.585472 C 26.316626 116.721863 37.818184 112.175461 39.132271 111.703903 C 50.684429 106.448128 62.600632 96.843216 65.896484 88.060707 C 68.262123 81.756531 68.687973 70.500259 61.991314 62.03289 C 54.095879 52.049866 43.650475 51.317482 35.630527 55.826492 Z"/>
        <path id="path2" fill="#ffffff" fill-rule="evenodd" stroke="#000000" stroke-width="5.750922" d="M 35.630527 55.826492 C 36.177444 70.990524 38.908264 82.506744 30.257153 97.441322 C 27.694836 101.864639 47.310081 92.106766 53.345673 79.357834 C 62.507755 60.005402 53.359474 47.845367 35.630527 55.826492 Z"/>
        <path id="Path" fill="#ffffff" stroke="#000000" stroke-width="5.750922" d="M 73.119644 48.451515 C 84.711487 47.622803 91.813873 37.910362 94.144432 31.302261 C 94.150757 28.027115 87.40464 17.024742 76.718567 20.823219 C 60.703396 27.872414 68.571236 44.879326 73.119644 48.451515 Z"/>
        <path id="path3" fill="#ffffff" stroke="#000000" stroke-width="5.750922" d="M 85.531563 41.209373 C 86.799072 42.961395 88.207466 44.562454 89.237175 46.213821 C 91.19709 49.356133 92.362801 51.971367 92.62619 51.172279 C 102.150002 22.281654 82.522392 20.011765 80.098671 19.994514 C 75.520073 19.962021 65.706985 23.073555 67.200783 36.481544 C 69.145752 37.907486 76.7062 30.998901 85.531563 41.209373 Z"/>
        <path id="path4" fill="#000000" fill-rule="evenodd" stroke="#000000" stroke-width="5.750922" d="M 52.218487 28.414154 C 52.502583 28.414154 52.732616 28.644478 52.732616 28.928566 C 52.732616 29.212379 52.502583 29.442703 52.218487 29.442703 C 51.934677 29.442703 51.704353 29.212379 51.704353 28.928566 C 51.704353 28.644478 51.934677 28.414154 52.218487 28.414154 Z"/>
    </g>
</svg>
