<?xml version="1.0" encoding="utf-8"?>
<svg x="167.427pt" y="167.423pt" width="465.147pt" height="465.153pt" viewBox="167.427 167.423 465.147 465.153" xmlns="http://www.w3.org/2000/svg" xmlns:xlink="http://www.w3.org/1999/xlink">
  <!--Generated by AMDN-->
  <g id="Group">
    <path id="Path" style="fill:none;opacity:1;stroke:#000000;stroke-linecap:butt;stroke-linejoin:miter;stroke-miterlimit:10;stroke-opacity:1;stroke-width:20;" d="M400,177.423 C522.924,177.423,622.573,277.073,622.573,399.997 C622.573,522.921,522.924,622.57,400,622.57 C277.076,622.57,177.427,522.921,177.427,399.997 C177.427,277.073,277.076,177.423,400,177.423 z"/>
    <path id="Path 2 Copy" style="fill:#ffffff;fill-opacity:1;fill-rule:evenodd;opacity:1;stroke:#000000;stroke-linecap:butt;stroke-linejoin:miter;stroke-miterlimit:10;stroke-opacity:1;stroke-width:20;" d="M305.722,601.675 C340.922,618.143,373.319,622.778,396,622.57 C412.332,622.42,442.378,619.351,445.961,617.819 C501.049,606.783,484.165,543.042,405.121,559.083 C376.838,557.987,301.151,603.315,305.722,601.675 z"/>
    <path id="Path 2" style="fill:#ffffff;fill-opacity:1;fill-rule:evenodd;opacity:1;stroke:#000000;stroke-linecap:butt;stroke-linejoin:miter;stroke-miterlimit:10;stroke-opacity:1;stroke-width:20;" d="M409.866,308.097 C412.506,303.022,430.915,280.827,454.676,282.357 C431.569,234.067,333.502,228.882,305.519,308.125 C294.273,339.97,292.965,369.622,293.995,398.16 C296.461,466.514,312.339,528.478,237.2,598.882 C234.151,601.739,218.635,613.442,229.164,614.865 C274.899,625.125,394.178,599.022,432.715,562.695 C459.97,537.005,516.699,469.53,424.205,380.859 C424.205,380.859,390.167,345.963,409.866,308.097 z"/>
    <path id="Path 2 Copy 1" style="fill:#ffffff;fill-opacity:1;fill-rule:evenodd;opacity:1;stroke:#000000;stroke-linecap:butt;stroke-linejoin:miter;stroke-miterlimit:10;stroke-opacity:1;stroke-width:20;" d="M305.722,601.675 C340.922,618.143,373.319,622.778,396,622.57 C419.923,615.497,427.454,590.44,416.573,574.708 C393.409,541.22,347.13,581.196,305.722,601.675 z"/>
    <path id="Path 2" style="fill:#ffffff;fill-opacity:1;fill-rule:evenodd;opacity:1;stroke:#000000;stroke-linecap:butt;stroke-linejoin:miter;stroke-miterlimit:10;stroke-opacity:1;stroke-width:20;" d="M294.384,407.041 C296.85,475.396,312.339,528.478,237.2,598.882 C234.151,601.739,218.635,613.442,229.164,614.865 C261.993,618.817,301.992,603.006,306.562,601.366 C346.737,583.088,388.178,549.685,399.64,519.142 C407.867,497.218,409.348,458.072,386.059,428.625 C358.601,393.907,322.275,391.36,294.384,407.041 z"/>
    <path id="Path 2" style="fill:#ffffff;fill-opacity:1;fill-rule:evenodd;opacity:1;stroke:#000000;stroke-linecap:butt;stroke-linejoin:miter;stroke-miterlimit:10;stroke-opacity:1;stroke-width:20;" d="M294.384,407.041 C296.286,459.777,305.783,499.827,275.697,551.765 C266.786,567.148,335.002,533.213,355.992,488.876 C387.855,421.574,356.04,379.285,294.384,407.041 z"/>
    <path id="Path" style="fill:#ffffff;fill-opacity:1;fill-rule:nonzero;opacity:1;stroke:#000000;stroke-linecap:butt;stroke-linejoin:miter;stroke-miterlimit:10;stroke-opacity:1;stroke-width:20;" d="M424.76,381.393 C465.073,378.511,489.773,344.734,497.878,321.753 C497.9,310.363,474.439,272.1,437.276,285.31 C381.58,309.825,408.942,368.97,424.76,381.393 z"/>
    <path id="Path" style="fill:#ffffff;fill-opacity:1;fill-rule:nonzero;opacity:1;stroke:#000000;stroke-linecap:butt;stroke-linejoin:miter;stroke-miterlimit:10;stroke-opacity:1;stroke-width:20;" d="M467.925,356.207 C472.333,362.3,477.231,367.868,480.812,373.611 C487.628,384.539,491.682,393.634,492.598,390.855 C525.719,290.382,457.46,282.488,449.031,282.428 C433.108,282.315,398.981,293.136,404.176,339.765 C410.94,344.724,437.233,320.698,467.925,356.207 z"/>
    <path id="Path" style="fill:#000000;fill-opacity:1;fill-rule:evenodd;opacity:1;stroke:#000000;stroke-linecap:butt;stroke-linejoin:miter;stroke-miterlimit:10;stroke-opacity:1;stroke-width:20;" d="M352.072,311.709 C353.06,311.709,353.86,312.51,353.86,313.498 C353.86,314.485,353.06,315.286,352.072,315.286 C351.085,315.286,350.284,314.485,350.284,313.498 C350.284,312.51,351.085,311.709,352.072,311.709 z"/>
  </g>
</svg>
